<?xml version="1.0" encoding="UTF-8"?>
<!DOCTYPE svg PUBLIC "-//W3C//DTD SVG 1.1//EN" "http://www.w3.org/Graphics/SVG/1.1/DTD/svg11.dtd">
<!-- Creator: CorelDRAW X7 -->
<svg xmlns="http://www.w3.org/2000/svg" xml:space="preserve" width="210mm" height="297mm" version="1.1" style="shape-rendering:geometricPrecision; text-rendering:geometricPrecision; image-rendering:optimizeQuality; fill-rule:evenodd; clip-rule:evenodd"
viewBox="0 0 21000 29700"
 xmlns:xlink="http://www.w3.org/1999/xlink"
 inkscape:version="0.48.5 r10040"
 sodipodi:docname="A.svg"
 xmlns:cc="http://creativecommons.org/ns#"
 xmlns:dc="http://purl.org/dc/elements/1.1/"
 xmlns:inkscape="http://www.inkscape.org/namespaces/inkscape"
 xmlns:rdf="http://www.w3.org/1999/02/22-rdf-syntax-ns#"
 xmlns:sodipodi="http://sodipodi.sourceforge.net/DTD/sodipodi-0.dtd"
 xmlns:svg="http://www.w3.org/2000/svg">
 <defs>
  <style type="text/css">
   <![CDATA[
    .fil0 {fill:#00539B}
   ]]>
  </style>
 </defs>
 <g id="Layer_x0020_1">
  <metadata id="CorelCorpID_0Corel-Layer"/>
  <g id="_2244729678192">
   <g>
    <path class="fil0" d="M13897 18183c0,-239 191,-434 426,-434 113,0 219,47 301,125 82,82 125,191 125,305 0,113 -43,223 -125,305 -82,82 -188,129 -301,129 -235,0 -426,-192 -426,-430l0 0zm-36 0c0,258 208,469 466,469 125,0 238,-47 324,-137 86,-90 137,-207 137,-332 0,-126 -47,-243 -137,-333 -90,-90 -203,-137 -324,-137 -258,0 -466,212 -466,470l0 0zm290 277l66 0 0 -219 149 0c23,0 43,0 58,8 20,12 32,35 36,67l7 86c0,19 0,31 0,39 4,7 4,11 8,15l82 0 0 -11c-11,-4 -15,-16 -19,-32 -4,-8 -4,-23 -4,-43l-4 -66c0,-31 -8,-51 -16,-63 -11,-11 -27,-23 -47,-31 24,-12 39,-27 51,-47 12,-19 16,-43 16,-74 0,-59 -24,-98 -67,-121 -23,-12 -54,-16 -90,-16l-222 0 -4 508 0 0zm62 -277l0 -176 157 0c23,0 43,4 54,11 24,12 36,39 36,75 0,35 -8,58 -28,70 -15,12 -39,20 -70,20l-149 0zm-18525 645l-1900 2987 1298 0 1830 -2854 -1228 -133zm7824 -67l0 -1106 -3695 0c-504,31 -723,273 -887,446 -176,183 -274,570 -274,570l0 -1008 -1967 0c-148,0 -289,62 -395,211 -109,144 -559,887 -559,887l7777 0zm10048 0l0 -1106 -3953 0c-500,31 -723,273 -887,446 -176,183 -274,570 -274,570l0 90 5114 0zm-8750 -1102l-1107 0 0 1102 1107 0 0 -1102zm3624 0l-1102 0 0 1102 1102 0 0 -1102zm0 1501l-1087 -66 0 1278c0,0 -3,368 -359,368l-1861 0c0,0 -317,-28 -317,-364l0 -1454 -1095 -79 0 1959c176,939 1025,1013 1025,1013 0,0 86,4 101,8l2522 0c0,0 1079,-86 1079,-1126l-8 -1537 0 0zm-10904 2655l5169 0c899,-180 993,-1001 993,-1001 43,-242 19,-442 19,-442 -27,-164 -340,-891 -1012,-954 -403,-39 -3988,-324 -3988,-324 70,359 230,543 340,645 250,238 645,309 645,309 94,7 2764,230 2764,230 86,4 246,28 243,239 0,27 -24,211 -227,211l-3867 0 0 -1642 -1075 -78c-4,0 -4,2807 -4,2807zm10912 8l3957 0c993,-59 1134,-1001 1134,-1001 35,-247 8,-450 8,-450 -28,-223 -344,-895 -1021,-962 -399,-39 -4007,-250 -4007,-250 105,372 250,485 359,587 251,242 622,297 622,297 94,8 2792,234 2792,234 86,4 262,12 262,223 0,63 -32,129 -71,164 0,0 -94,51 -184,51l-3839 0 -12 1107z"/>
   </g>
  </g>
 </g>
</svg>
